<svg xmlns="http://www.w3.org/2000/svg" width="22" height="22" viewBox="0 0 22 22">
  <g id="image_12_" data-name="image (12)" transform="translate(-3.002 -3)">
    <path id="Path_13" data-name="Path 13" d="M5,0A5,5,0,0,0,0,5V15a5,5,0,0,0,5,5H15a5,5,0,0,0,5-5V5a5,5,0,0,0-5-5H5Z" transform="translate(4 4)" fill="none" stroke="#fafafa" stroke-width="2"/>
    <path id="Path_14" data-name="Path 14" d="M5.062,14.349V3.545H9.2c1.934,0,3.1,1.034,3.1,2.7A2.341,2.341,0,0,1,10.5,8.562V8.69a2.506,2.506,0,0,1,2.32,2.6c0,1.924-1.364,3.069-3.5,3.069H5.062Z" transform="translate(5.369 4.775)" fill="#fafafa"/>
  </g>
</svg>
