<svg xmlns="http://www.w3.org/2000/svg" width="13" height="20" viewBox="0 0 13 20">
  <path id="question-solid" d="M18.889,37.617a2.875,2.875,0,0,1,2.889-2.857h1.444a2.875,2.875,0,0,1,2.889,2.857v.161a2.843,2.843,0,0,1-1.327,2.4l-1.9,1.21a3.916,3.916,0,0,0-1.824,3.3v.062a1.445,1.445,0,0,0,2.889,0v-.062a1.073,1.073,0,0,1,.5-.9l1.9-1.21A5.7,5.7,0,0,0,29,37.774v-.161A5.745,5.745,0,0,0,23.222,31.9H21.778A5.752,5.752,0,0,0,16,37.617a1.445,1.445,0,0,0,2.889,0ZM22.5,51.9a1.785,1.785,0,1,0-1.806-1.785A1.8,1.8,0,0,0,22.5,51.9Z" transform="translate(-16 -31.9)" fill="#fff"/>
</svg>
