<svg xmlns="http://www.w3.org/2000/svg" width="20" height="15" viewBox="0 0 20 15">
  <path id="image_1_" data-name="image (1)" d="M2,35.214V34.143H5V44.857H4A1.074,1.074,0,0,0,4,47H8a1.074,1.074,0,0,0,0-2.143H7V34.143h3v1.071a1,1,0,1,0,2,0V33.607A1.557,1.557,0,0,0,10.5,32h-9A1.557,1.557,0,0,0,0,33.607v1.607a1.036,1.036,0,0,0,1,1.071A1.036,1.036,0,0,0,2,35.214Zm10,5.893v-.536h2v4.286h-.5A1.074,1.074,0,0,0,13.5,47h3a1.074,1.074,0,0,0,0-2.143H16V40.571h2v.536a1,1,0,1,0,2,0V40.036a1.557,1.557,0,0,0-1.5-1.607h-7A1.557,1.557,0,0,0,10,40.036v1.071a1,1,0,1,0,2,0Z" transform="translate(0 -32)" fill="#fff"/>
</svg>
