<svg xmlns="http://www.w3.org/2000/svg" width="20" height="18" viewBox="0 0 20 18">
  <path id="image-regular" d="M17.5,33.929a.636.636,0,0,1,.625.643V47.421l-.2-.261-5.312-7.071a.924.924,0,0,0-1.484,0L7.891,44.4,6.7,42.688a.92.92,0,0,0-1.523,0l-3.125,4.5-.176.249V34.571a.636.636,0,0,1,.625-.643ZM2.5,32A2.539,2.539,0,0,0,0,34.571V47.429A2.539,2.539,0,0,0,2.5,50h15A2.539,2.539,0,0,0,20,47.429V34.571A2.539,2.539,0,0,0,17.5,32Zm3.125,7.714A1.929,1.929,0,1,0,3.75,37.786,1.9,1.9,0,0,0,5.625,39.714Z" transform="translate(0 -32)" fill="#fafafa"/>
</svg>
