<svg xmlns="http://www.w3.org/2000/svg" width="39.647" height="34.941" viewBox="0 0 39.647 34.941">
  <path id="server-solid" d="M4.706,32A4.71,4.71,0,0,0,0,36.706v4.706a4.71,4.71,0,0,0,4.706,4.706H32.941a4.71,4.71,0,0,0,4.706-4.706V36.706A4.71,4.71,0,0,0,32.941,32Zm20.588,5.294a1.765,1.765,0,1,1-1.765,1.765A1.765,1.765,0,0,1,25.294,37.294Zm3.529,1.765a1.765,1.765,0,1,1,1.765,1.765A1.765,1.765,0,0,1,28.824,39.059ZM4.706,50.824A4.71,4.71,0,0,0,0,55.53v4.706a4.71,4.71,0,0,0,4.706,4.706H32.941a4.71,4.71,0,0,0,4.706-4.706V55.53a4.71,4.71,0,0,0-4.706-4.706Zm20.588,5.294a1.765,1.765,0,1,1-1.765,1.765A1.765,1.765,0,0,1,25.294,56.118Zm4.118,1.765a1.765,1.765,0,1,1,1.765,1.765A1.765,1.765,0,0,1,29.412,57.883Z" transform="translate(1 -31)" fill="#6140a9" stroke="#7363e0" stroke-width="2"/>
</svg>
